Coordinates
version=1
nRows=16
nColumns=42
inDegrees=yes

Units are S.I. units (second, meters, Newtons, ...)
If the header above contains a line with 'inDegrees', this indicates whether rotational values are in degrees (yes) or radians (no).

endheader
time	pelvis_tilt	pelvis_list	pelvis_rotation	pelvis_tx	pelvis_ty	pelvis_tz	hip_flexion_r	hip_adduction_r	hip_rotation_r	knee_angle_r	knee_adduction_r	knee_angle_r_beta	ankle_angle_r	subtalar_angle_r	mtp_angle_r	hip_flexion_l	hip_adduction_l	hip_rotation_l	knee_angle_l	knee_adduction_l	knee_angle_l_beta	ankle_angle_l	subtalar_angle_l	mtp_angle_l	lumbar_extension	lumbar_bending	lumbar_rotation	arm_flex_r	arm_add_r	arm_rot_r	elbow_flex_r	pro_sup_r	wrist_flex_r	wrist_dev_r	arm_flex_l	arm_add_l	arm_rot_l	elbow_flex_l	pro_sup_l	wrist_flex_l	wrist_dev_l
      1.59000000	     10.05212966	      5.13891757	     -2.53112025	     -0.79748688	      0.91700676	      0.18433814	     22.18416267	     -6.22436169	    -21.32896829	     37.19909301	    -10.71198311	      0.64924665	     14.54024206	     13.15257886	     -7.63294252	    -17.09805311	      5.63991431	    -30.76646021	     28.04885997	    -14.29041861	      0.48954496	     20.87975335	     30.73435942	     -7.63294252	    -39.24211447	     -3.98848088	     -3.30187539	      4.06623042	     -7.89202380	      8.27613961	     36.29382628	     90.00000001	      0.00000000	      0.00000000	     -1.99044425	    -12.37173457	      3.54582370	     42.67161896	     90.00000001	      0.00000000	      0.00000000
      1.60000000	      9.88602200	      5.07630845	     -2.42566236	     -0.79117444	      0.91788838	      0.18675136	     21.85325841	     -6.03135033	    -22.23002378	     37.04508695	    -11.09583534	      0.64655874	     15.08744318	     14.22782187	     -7.62508309	    -16.34710360	      5.23421435	    -29.26005932	     30.14546937	    -13.92820062	      0.52613770	     19.52068186	     27.25874314	     -7.62508309	    -39.12061914	     -3.85979973	     -3.27669796	      4.17372295	     -7.99483024	      8.49843954	     36.47511997	     90.00000001	      0.00000000	      0.00000000	     -2.02333274	    -12.25088787	      3.40005370	     42.65460468	     90.00000001	      0.00000000	      0.00000000
      1.61000000	      9.73134803	      4.91240031	     -2.33569689	     -0.78493439	      0.91857729	      0.18914007	     21.46046705	     -5.67839299	    -22.84805873	     36.84146452	    -11.33119061	      0.64300486	     15.53853453	     14.42369843	     -7.62369912	    -15.37925807	      4.45727864	    -29.03186016	     32.50073170	    -13.85204754	      0.56724478	     18.31088828	     26.20959741	     -7.62369912	    -38.99014920	     -3.63633274	     -3.19714557	      4.30363741	     -8.09492913	      8.50953794	     36.58983682	     90.00000001	      0.00000000	      0.00000000	     -2.08301414	    -12.13479851	      3.41615909	     42.68586975	     90.00000001	      0.00000000	      0.00000000
      1.62000000	      9.54112722	      4.73998856	     -2.24428932	     -0.77885620	      0.91912550	      0.19150516	     21.15955046	     -5.30477984	    -23.74807586	     36.61753698	    -11.79051939	      0.63909658	     16.00626156	     15.05511326	     -7.62191989	    -14.28405990	      3.77177206	    -28.43462988	     34.99010191	    -13.72584666	      0.61069248	     16.83524470	     23.90209104	     -7.62191989	    -38.84683193	     -3.42249834	     -3.05750398	      4.45242809	     -8.22857129	      8.53821955	     36.76730641	     90.00000001	      0.00000000	      0.00000000	     -2.09926506	    -12.01200533	      3.43900102	     42.74444733	     90.00000001	      0.00000000	      0.00000000
      1.63000000	      9.51662135	      4.80353500	     -2.13164266	     -0.77283167	      0.92001162	      0.19341577	     20.79774563	     -5.51606611	    -25.59421946	     36.49187157	    -12.47665338	      0.63690331	     16.72915971	     17.91275935	     -7.61501867	    -13.60837893	      3.96495799	    -25.01252558	     37.28468085	    -12.58098477	      0.65074044	     14.62253090	     16.21509388	     -7.61501867	    -38.89355942	     -3.37670161	     -3.14698368	      4.55699698	     -8.41179364	      8.71866935	     37.06563485	     90.00000001	      0.00000000	      0.00000000	     -2.03930855	    -11.91789135	      3.51987692	     42.82969075	     90.00000001	      0.00000000	      0.00000000
      1.64000000	      9.45467755	      4.72810645	     -2.03951287	     -0.76696435	      0.92062741	      0.19544242	     20.40606245	     -5.44610573	    -26.79570500	     36.33165431	    -12.87822620	      0.63410699	     17.32072389	     19.30394801	     -7.60847439	    -12.66099420	      3.66140379	    -23.09525221	     39.78566216	    -11.73690067	      0.69439080	     12.65417670	     11.79959051	     -7.60847439	    -38.90226629	     -3.23962258	     -3.13201378	      4.74259674	     -8.58115119	      8.80933988	     37.23834630	     90.00000001	      0.00000000	      0.00000000	     -2.01345916	    -11.83383837	      3.63199937	     42.93690821	     90.00000001	      0.00000000	      0.00000000
      1.65000000	      9.40379486	      4.63890426	     -1.92670379	     -0.76117745	      0.92112746	      0.19734437	     20.01381850	     -5.34145448	    -27.83095212	     36.22937338	    -13.25714561	      0.63232185	     17.86283569	     20.37595508	     -7.60277617	    -11.63895353	      3.37275505	    -21.23761947	     42.32819793	    -10.90137503	      0.73876642	     10.64642215	      7.27847011	     -7.60277617	    -38.91568163	     -3.06529601	     -3.08785886	      4.92533804	     -8.76281633	      8.86446105	     37.45383725	     90.00000001	      0.00000000	      0.00000000	     -1.97834584	    -11.73101635	      3.76393429	     43.04808409	     90.00000001	      0.00000000	      0.00000000
      1.66000000	      9.33380703	      4.44886441	     -1.85046910	     -0.75557823	      0.92141319	      0.19927939	     19.64494788	     -5.01682507	    -28.51234806	     36.09749113	    -13.56610689	      0.63002007	     18.42148298	     20.77754487	     -7.60035594	    -10.47568283	      2.88273900	    -20.11265158	     44.91014962	    -10.34629109	      0.78382998	      9.16554990	      4.81094543	     -7.60035594	    -38.91768240	     -2.81391147	     -2.97734834	      5.14907732	     -8.95679621	      8.86822817	     37.61651453	     90.00000001	      0.00000000	      0.00000000	     -1.91227757	    -11.59497874	      3.86491528	     43.16572580	     90.00000001	      0.00000000	      0.00000000
      1.67000000	      9.37389710	      4.45732350	     -1.72588328	     -0.75016544	      0.92197052	      0.20090835	     19.20586022	     -5.13811392	    -29.31677021	     36.17938551	    -13.68450482	      0.63144940	     18.93992906	     21.83357904	     -7.59437009	     -9.54053531	      2.91647961	    -17.10722159	     47.37601582	     -8.71336735	      0.82686746	      6.73313763	     -1.69339918	     -7.59437009	    -39.07684083	     -2.74263932	     -3.04668484	      5.41495782	     -9.14152695	      8.91734554	     37.83653477	     90.00000001	      0.00000000	      0.00000000	     -1.84504138	    -11.53990143	      4.13382150	     43.28345533	     90.00000001	      0.00000000	      0.00000000
      1.68000000	      9.38093765	      4.25641970	     -1.64511233	     -0.74478593	      0.92213573	      0.20265903	     18.76119956	     -4.84172587	    -29.58246174	     36.21137648	    -13.68889235	      0.63200775	     19.40081914	     21.72185962	     -7.59262417	     -8.35639445	      2.38634012	    -16.50499319	     49.85712153	     -8.32102304	      0.87017093	      6.02161397	     -2.70050485	     -7.59262417	    -39.16214708	     -2.47692228	     -2.95135254	      5.66138633	     -9.33718248	      8.86909531	     38.01064233	     90.00000001	      0.00000000	      0.00000000	     -1.83468233	    -11.36781408	      4.22928466	     43.40266678	     90.00000001	      0.00000000	      0.00000000
      1.69000000	      9.32995959	      4.29735388	     -1.56341883	     -0.73981185	      0.92233704	      0.20421594	     18.53298658	     -4.89603766	    -30.00036079	     36.39786488	    -13.83675460	      0.63526258	     19.94105681	     22.25351794	     -7.58763739	     -7.16062388	      2.50902360	    -13.68839622	     52.30822399	     -6.59811869	      0.91295073	      3.94740489	     -9.00893236	     -7.58763739	    -39.24699145	     -2.47783720	     -2.96955560	      5.95542657	     -9.48747117	      8.81743456	     38.16000041	     90.00000001	      0.00000000	      0.00000000	     -1.64306351	    -11.34620306	      4.61201868	     43.50202592	     90.00000001	      0.00000000	      0.00000000
      1.70000000	      9.39831716	      4.15469277	     -1.51926447	     -0.73474778	      0.92249427	      0.20581138	     18.06971050	     -4.69419057	    -30.01506468	     36.53241324	    -13.70473196	      0.63761089	     20.32318522	     22.06926929	     -7.58620342	     -5.98669560	      2.13152301	    -13.32910219	     54.57001725	     -6.33812208	      0.95242647	      3.77487881	     -9.60757161	     -7.58620342	    -39.43053665	     -2.30277440	     -2.89038111	      6.24035129	     -9.69566712	      8.73106989	     38.33012373	     90.00000001	      0.00000000	      0.00000000	     -1.57389023	    -11.18155574	      4.71133405	     43.64644548	     90.00000001	      0.00000000	      0.00000000
      1.71000000	      9.26822525	      4.18166813	     -1.49984588	     -0.73011172	      0.92240365	      0.20730711	     17.98358242	     -4.62910701	    -29.91191749	     36.80008864	    -13.72924963	      0.64228271	     20.84684528	     21.85190228	     -7.58178040	     -4.57468431	      2.18090831	    -11.37003321	     56.84140619	     -4.93792921	      0.99206969	      2.69427641	    -13.71029955	     -7.58178040	    -39.42986775	     -2.31799017	     -2.83421097	      6.53929180	     -9.80486343	      8.48218829	     38.44812016	     90.00000001	      0.00000000	      0.00000000	     -1.39117864	    -11.16221241	      5.15218042	     43.76792363	     90.00000001	      0.00000000	      0.00000000
      1.72000000	      9.22214974	      4.10969449	     -1.53421332	     -0.72543266	      0.92232563	      0.20882712	     17.76353073	     -4.42009053	    -29.71913109	     36.99248600	    -13.70481923	      0.64564068	     21.27703398	     21.52887199	     -7.57963792	     -3.20714474	      1.99323976	    -11.03250765	     58.89057056	     -4.64515054	      1.02783435	      2.88103581	    -14.53496417	     -7.57963792	    -39.50620861	     -2.26282174	     -2.70194944	      6.82252763	     -9.98609465	      8.30941312	     38.59652720	     90.00000001	      0.00000000	      0.00000000	     -1.26695763	    -11.02749121	      5.32441583	     43.92892138	     90.00000001	      0.00000000	      0.00000000
      1.73000000	      9.17912406	      4.06754365	     -1.57729118	     -0.72086672	      0.92229846	      0.21023966	     17.54770021	     -4.26428338	    -29.45094904	     37.21383936	    -13.61935998	      0.64950402	     21.67312785	     21.17112580	     -7.57779418	     -1.83960531	      1.88044053	    -10.65993286	     60.76749292	     -4.30593408	      1.06059283	      3.15294760	    -15.30514129	     -7.57779418	    -39.58233484	     -2.23461546	     -2.58748700	      7.12090644	    -10.15324902	      8.10526446	     38.73918081	     90.00000001	      0.00000000	      0.00000000	     -1.13052056	    -10.90231142	      5.50627310	     44.07777560	     90.00000001	      0.00000000	      0.00000000
      1.74000000	      9.18332777	      4.03006957	     -1.62791216	     -0.71636542	      0.92241259	      0.21155169	     17.25837427	     -4.15336152	    -29.18563043	     37.41306819	    -13.45500800	      0.65298122	     21.98204256	     20.82936777	     -7.57636542	     -0.53204475	      1.80278071	    -10.46390016	     62.41719193	     -4.11333356	      1.08938551	      3.51089563	    -15.72293374	     -7.57636542	    -39.71938259	     -2.21442421	     -2.48284504	      7.42525902	    -10.31992786	      7.90491901	     38.87704821	     90.00000001	      0.00000000	      0.00000000	     -1.01394388	    -10.76908837	      5.65080464	     44.22748120	     90.00000001	      0.00000000	      0.00000000
